<?xml version="1.0" standalone="no"?>
<!DOCTYPE svg PUBLIC "-//W3C//DTD SVG 20010904//EN"
 "http://www.w3.org/TR/2001/REC-SVG-20010904/DTD/svg10.dtd">
<svg version="1.0" xmlns="http://www.w3.org/2000/svg"
 width="757.000000pt" height="584.000000pt" viewBox="0 0 757.000000 584.000000"
 preserveAspectRatio="xMidYMid meet">

<g transform="translate(0.000000,584.000000) scale(0.100000,-0.100000)"
fill="#000000" stroke="none">
<path d="M391 5753 c-109 -22 -175 -60 -222 -129 -63 -92 -59 65 -59 -2440 0
-1655 3 -2291 12 -2316 24 -71 91 -133 188 -173 39 -16 86 -19 370 -24 179 -3
1713 -5 3408 -4 2379 1 3096 4 3135 14 110 25 199 94 238 182 22 50 23 61 22
292 -1 132 -4 1166 -7 2297 -5 1837 -7 2062 -21 2095 -40 96 -106 153 -221
194 l-59 20 -3364 2 c-2515 2 -3379 -1 -3420 -10z m6729 -45 c118 -28 217 -97
252 -175 18 -42 19 -109 18 -2295 0 -2246 0 -2251 -21 -2284 -20 -34 -74 -84
-89 -84 -4 0 7 28 26 62 39 73 41 88 13 88 -11 0 -17 4 -14 10 3 5 5 171 4
367 -1 445 0 1446 5 2508 2 446 0 905 -5 1020 -5 138 -5 257 2 345 19 235 18
241 -52 304 -93 84 261 76 -3484 74 -3257 -3 -3341 -3 -3378 -22 -88 -43 -132
-116 -126 -206 7 -102 -1 -4274 -8 -4350 -10 -102 -10 -112 0 -133 16 -35 1
-39 -30 -7 -52 53 -57 102 -47 425 10 336 10 405 6 2487 l-3 1638 22 50 c26
60 82 113 158 149 55 26 60 26 336 31 565 11 6368 9 6415 -2z m-6288 -99 c11
-6 67 -11 125 -11 57 0 102 -3 98 -6 -4 -4 -129 -7 -278 -7 -260 0 -274 -1
-320 -22 -68 -31 -104 -60 -138 -106 -34 -46 -39 -27 -9 32 31 61 98 111 177
131 47 12 319 3 345 -11z m488 1 c0 -6 -31 -10 -72 -10 -51 0 -68 3 -58 10 20
13 130 13 130 0z m215 0 c-11 -5 -36 -9 -55 -9 -19 0 -44 4 -55 9 -14 6 4 9
55 9 51 0 69 -3 55 -9z m5660 -33 c35 -20 82 -83 70 -95 -2 -3 -23 12 -45 32
-23 20 -52 42 -66 48 -25 11 -29 20 -17 31 9 10 14 9 58 -16z m-3130 -222 c61
-10 178 -20 262 -24 l152 -6 -59 -115 c-31 -63 -90 -196 -130 -295 -40 -99
-97 -229 -126 -288 -57 -114 -117 -213 -122 -199 -8 24 68 333 141 574 l83
277 -30 -4 c-17 -2 -41 -4 -54 -4 -60 -2 -121 -198 -238 -758 -47 -230 -122
-568 -130 -592 -2 -8 -7 -11 -10 -9 -3 3 -76 277 -163 609 l-157 604 -35 17
c-37 19 -84 24 -93 9 -11 -18 25 -158 94 -361 101 -301 130 -446 65 -335 -16
28 -42 69 -58 93 -80 120 -158 305 -208 501 -18 67 -35 104 -90 187 l-69 104
68 -6 c56 -5 323 17 477 40 60 9 323 -3 430 -19z m-1952 -120 c96 -47 190 -88
209 -91 34 -6 313 78 391 118 92 46 66 66 272 -209 102 -135 184 -248 182
-249 -2 -2 -77 30 -168 70 -90 41 -180 77 -199 81 -33 6 -28 0 91 -122 70 -70
148 -159 175 -198 26 -38 76 -97 109 -130 72 -71 289 -324 283 -330 -12 -12
-529 364 -760 551 -69 57 -218 170 -330 250 -408 295 -471 344 -439 344 5 0
87 -38 184 -85z m3502 56 c-11 -10 -216 -166 -455 -346 -239 -180 -558 -420
-708 -534 -150 -113 -294 -222 -320 -241 l-47 -34 50 54 c28 30 140 163 250
295 109 132 258 300 331 373 72 72 130 132 130 132 -1 0 -27 -12 -57 -26 -30
-15 -106 -50 -169 -79 -63 -28 -141 -68 -173 -88 -31 -20 -57 -33 -56 -29 1
17 398 527 412 530 9 2 31 -8 49 -21 62 -47 323 -137 398 -137 25 0 65 17 140
61 152 90 276 139 225 90z m739 -84 c-33 -30 -108 -92 -169 -138 -60 -45 -249
-193 -420 -328 -777 -614 -940 -730 -1127 -804 -143 -57 -122 -26 82 126 74
55 205 157 290 226 517 420 796 630 1060 798 165 105 325 189 339 177 2 -2
-23 -27 -55 -57z m-5110 8 c335 -171 663 -399 1256 -871 151 -121 327 -259
390 -306 130 -98 165 -127 159 -132 -8 -8 -147 42 -226 82 -132 66 -279 169
-523 367 -69 56 -282 220 -475 365 -290 219 -427 324 -685 527 -35 28 18 12
104 -32z m859 -272 c72 -37 243 -159 422 -302 105 -83 231 -180 280 -216 50
-35 98 -77 108 -94 l18 -31 -30 0 c-16 0 -42 -7 -58 -17 -29 -16 -30 -16 -84
24 -30 22 -117 91 -194 152 -77 62 -174 133 -215 159 -41 25 -107 72 -147 103
-39 31 -94 64 -121 73 -28 10 -52 23 -55 30 -5 12 32 136 40 136 2 0 18 -7 36
-17z m3431 -43 c16 -48 17 -62 6 -75 -7 -8 -18 -15 -25 -15 -15 0 -274 -176
-425 -289 -63 -47 -154 -125 -202 -172 l-87 -86 -43 28 c-24 16 -51 29 -60 29
-30 0 -20 27 20 57 20 15 123 96 227 179 249 198 535 404 560 404 5 0 19 -27
29 -60z m-4325 -217 c117 -63 218 -125 470 -287 282 -182 435 -275 471 -288
33 -11 34 -12 16 -118 -11 -71 -14 -76 -51 -101 -22 -15 -50 -30 -62 -33 -23
-7 -23 -6 -23 87 l0 94 -96 63 c-53 34 -171 118 -263 184 -91 67 -236 173
-321 235 -181 133 -268 211 -234 211 4 0 46 -21 93 -47z m5261 40 c-1 -24
-492 -388 -815 -605 l-110 -74 -3 -87 c-1 -48 -5 -87 -8 -87 -17 0 -65 34 -91
64 -31 34 -46 70 -57 134 -5 30 -3 34 27 44 74 26 193 94 313 179 331 233 562
379 659 415 64 25 85 28 85 17z m-700 -218 l0 -85 -52 -26 c-29 -15 -93 -52
-143 -84 -167 -107 -295 -173 -295 -153 0 40 188 229 268 270 37 20 57 38 67
59 9 23 32 42 77 67 34 19 66 35 71 36 4 0 7 -37 7 -84z m-3896 50 c43 -19 59
-32 69 -58 16 -37 75 -90 213 -190 142 -103 216 -195 148 -183 -45 9 -123 53
-311 179 l-182 122 -1 78 c0 42 2 77 4 77 2 0 29 -11 60 -25z m54 -564 c4 -63
-4 -71 -65 -71 -42 0 -42 0 -36 -31 9 -45 9 -390 1 -414 -6 -17 2 -26 52 -55
l60 -35 -2 -75 c-3 -63 -6 -75 -20 -74 -9 1 -66 41 -127 89 -108 84 -133 117
-115 147 4 7 8 133 9 280 0 147 4 270 9 275 8 8 117 19 191 18 l40 0 3 -54z
m3959 -83 c-4 -73 -3 -211 1 -306 l7 -173 -25 -22 c-14 -13 -50 -39 -80 -59
-30 -21 -73 -55 -95 -78 -21 -22 -42 -40 -46 -40 -3 0 -9 33 -13 72 l-7 73 50
45 50 45 4 223 5 222 -23 0 c-48 0 -55 9 -55 71 l0 59 116 0 116 0 -5 -132z
m-573 3 c92 -83 123 -117 114 -126 -2 -2 -366 -110 -809 -239 l-806 -235 -106
24 c-58 13 -222 58 -364 99 -142 41 -395 114 -563 161 -353 99 -630 185 -630
196 0 13 168 164 204 183 46 25 26 30 531 -131 433 -138 772 -237 868 -253 53
-10 75 -9 128 5 77 20 387 118 714 225 328 108 565 179 595 179 18 0 55 -26
124 -88z m946 -177 l0 -44 -116 0 -115 0 3 43 3 42 100 5 c55 3 106 3 113 1 7
-2 12 -20 12 -47z m-5552 1 l3 -41 -80 -2 c-85 -2 -111 9 -111 49 0 28 34 38
115 36 l70 -2 3 -40z m458 21 c15 -59 11 -61 -136 -61 l-135 0 -3 28 c-7 56
-4 57 137 57 130 0 131 0 137 -24z m374 2 c0 -13 3 -33 6 -45 6 -23 6 -23
-105 -23 -108 0 -111 1 -111 23 1 65 4 67 111 67 96 0 99 -1 99 -22z m5153 8
c3 -8 2 -27 -2 -43 l-7 -28 -132 -3 -132 -3 0 46 0 45 134 0 c106 0 135 -3
139 -14z m361 -2 c22 -21 20 -51 -3 -64 -11 -5 -54 -10 -95 -10 l-76 0 0 39
c0 46 5 48 97 50 44 1 66 -4 77 -15z m-4913 -75 c114 -44 110 -35 112 -255 l2
-187 200 -48 c228 -54 514 -131 568 -154 36 -15 40 -14 122 19 100 41 141 51
149 37 7 -11 -48 -56 -123 -100 -54 -32 -241 -168 -241 -175 0 -2 11 -3 25 -3
14 0 38 -6 54 -13 28 -11 36 -7 203 107 250 172 523 323 587 325 39 1 225
-102 450 -250 194 -127 317 -202 332 -202 6 0 24 7 41 16 l30 16 -23 24 c-12
13 -96 72 -186 131 -210 139 -213 150 -21 86 99 -33 114 -35 142 -24 57 23
245 80 434 132 103 28 216 59 253 70 l65 19 -3 176 c-2 102 1 183 7 194 8 16
107 60 189 85 l24 7 -8 -78 c-5 -44 -7 -171 -6 -284 l3 -206 -98 -28 c-128
-36 -270 -89 -366 -137 -100 -50 -319 -189 -466 -296 -65 -47 -158 -112 -209
-145 l-91 -61 5 -273 c5 -310 13 -280 -89 -307 -55 -14 -57 -14 -62 7 -2 11
-5 137 -6 280 0 142 -3 263 -6 267 -3 5 -30 9 -60 9 l-54 0 0 -293 c0 -215 -3
-296 -12 -305 -7 -7 -40 -12 -79 -12 l-67 0 -7 223 c-6 205 -3 293 11 340 9
29 -14 47 -61 47 -81 0 -75 24 -75 -317 l0 -305 -22 5 c-13 3 -45 9 -73 13
-27 4 -53 12 -57 18 -4 6 -8 133 -7 281 0 149 0 275 0 282 -1 13 -61 33 -98
33 l-23 0 0 -295 c0 -162 -3 -295 -6 -295 -4 0 -27 7 -53 15 -25 8 -59 17 -74
20 l-28 6 2 279 c1 154 0 282 -2 283 -40 32 -582 380 -657 421 -170 95 -410
191 -548 221 l-32 6 0 183 c0 175 -7 318 -19 380 -5 25 -3 28 13 22 11 -5 53
-21 95 -37z m792 -250 c232 -67 424 -123 425 -124 6 -5 -206 -72 -273 -86 -33
-7 -103 -13 -155 -13 -89 -1 -100 1 -164 33 -110 54 -230 186 -261 289 -3 12
-4 22 0 22 3 0 196 -54 428 -121z m2147 113 c0 -4 -21 -43 -47 -87 -61 -104
-135 -177 -220 -218 -63 -30 -76 -32 -173 -32 -95 0 -120 4 -258 44 -91 27
-149 48 -143 54 7 7 808 244 834 246 4 1 7 -2 7 -7z m469 -539 c103 -60 584
-388 589 -402 4 -12 -177 -182 -258 -242 -111 -82 -639 -433 -685 -457 -68
-34 -150 -53 -212 -50 l-58 3 435 309 c574 408 549 390 550 397 0 4 -44 37
-97 73 -54 37 -136 94 -183 126 -65 46 -180 112 -218 126 -4 2 30 78 50 112
11 17 24 32 30 32 6 0 32 -12 57 -27z m-3436 -20 c21 -36 47 -89 47 -98 0 -2
-20 -13 -44 -23 -43 -20 -229 -140 -298 -194 -20 -16 -62 -44 -92 -62 l-55
-33 207 -166 c317 -253 439 -341 602 -437 190 -112 210 -136 104 -126 -145 14
-256 70 -539 273 -123 88 -226 153 -291 184 -91 43 -105 54 -133 98 -18 27
-66 81 -107 120 -41 39 -74 73 -74 76 0 2 35 28 78 56 42 29 129 91 192 139
202 152 322 229 357 230 16 0 30 -12 46 -37z m3147 -37 c0 -8 -12 -42 -27 -76
-23 -54 -32 -64 -77 -87 -72 -36 -193 -115 -399 -262 l-178 -126 2 -62 c1 -35
6 -63 11 -63 5 0 92 65 194 144 165 127 326 236 350 236 5 0 9 -30 8 -67 l0
-67 -70 -42 c-38 -23 -139 -96 -224 -163 -181 -142 -394 -294 -397 -283 -8 25
-19 327 -14 370 l6 54 130 89 c354 241 478 322 569 368 108 56 116 58 116 37z
m-2799 -56 c100 -51 185 -104 449 -280 113 -75 213 -141 222 -146 14 -8 17
-39 21 -231 4 -176 2 -223 -8 -223 -7 0 -18 7 -25 15 -16 19 -151 120 -340
255 -80 56 -182 131 -226 166 l-82 63 -11 67 c-7 36 -10 69 -7 71 11 11 509
-340 542 -383 9 -12 13 -8 18 17 3 17 6 50 6 73 l0 41 -228 151 c-125 84 -261
171 -302 194 -41 24 -83 50 -94 59 -15 12 -76 130 -76 146 0 9 68 -17 141 -55z
m3022 -445 c37 -21 67 -42 67 -45 -1 -5 -333 -232 -349 -238 -4 -1 3 28 15 66
13 37 33 122 44 187 30 172 21 161 93 112 34 -23 92 -60 130 -82z m-3193 108
c0 -5 23 -93 50 -197 27 -105 47 -192 45 -194 -7 -7 -106 58 -180 118 -38 31
-93 73 -122 92 l-51 35 121 77 c120 75 137 83 137 69z m-737 -305 c12 -20 20
-39 17 -41 -3 -3 -219 -72 -480 -155 l-475 -149 -9 44 c-5 25 -5 48 0 53 8 7
714 245 824 278 19 6 50 10 69 9 27 -2 37 -9 54 -39z m4811 -44 c149 -47 356
-113 459 -146 l188 -60 -6 -41 c-4 -23 -11 -46 -16 -51 -5 -6 -61 7 -141 32
-73 22 -221 66 -328 97 -270 78 -520 157 -520 165 0 18 62 90 77 90 9 0 139
-39 287 -86z m-4631 -131 c37 -30 65 -58 62 -63 -3 -5 -40 -7 -83 -3 -53 4
-101 0 -156 -11 -93 -19 -106 -20 -106 -4 0 16 75 85 129 119 55 36 65 33 154
-38z m4270 28 c23 -16 62 -50 87 -75 42 -43 43 -46 20 -46 -14 0 -63 7 -110
15 -47 8 -106 15 -132 15 -27 0 -48 5 -48 10 0 6 21 33 46 60 55 59 78 62 137
21z m-5189 -489 c60 -75 153 -218 192 -297 17 -35 28 -81 34 -141 5 -48 7 -90
5 -92 -21 -21 -151 149 -212 278 -19 41 -61 115 -93 165 -31 49 -65 105 -74
123 l-17 32 55 0 55 0 55 -68z m1303 38 c32 -16 76 -44 97 -62 35 -31 37 -38
43 -104 5 -68 5 -71 -26 -107 -23 -25 -50 -42 -96 -57 -36 -12 -65 -25 -65
-28 0 -4 25 -36 56 -72 63 -73 114 -147 114 -167 0 -9 -20 -13 -73 -13 -65 0
-74 2 -87 24 -8 13 -55 66 -105 118 l-90 95 -73 7 c-90 9 -116 2 -102 -24 6
-11 12 -64 13 -117 l2 -98 -72 -3 c-71 -3 -73 -2 -79 24 -4 14 -3 79 1 143 5
64 8 135 8 158 l-1 41 77 7 c42 3 126 1 186 -4 201 -20 285 3 271 72 -13 65
-53 78 -246 76 -74 0 -169 0 -212 0 l-76 1 -4 53 c-3 28 -3 55 -1 60 2 4 111
7 242 7 l238 0 60 -30z m1407 -28 c-1 -29 -4 -55 -6 -58 -8 -7 -519 -4 -568 4
-44 7 -45 7 -56 60 l-12 52 322 -2 321 -3 -1 -53z m772 19 c-3 -20 -6 -46 -6
-57 0 -21 -5 -22 -229 -29 -218 -7 -230 -8 -257 -30 -29 -23 -29 -24 -32 -147
-4 -121 -3 -125 22 -155 37 -44 87 -54 304 -60 l192 -5 0 -28 c0 -15 3 -42 6
-60 l7 -32 -224 7 -224 7 -82 49 c-70 43 -141 105 -144 127 -1 4 -2 69 -4 144
l-3 137 56 52 c62 57 111 90 157 107 18 6 116 10 249 10 l218 -1 -6 -36z m255
-88 c0 -70 2 -189 5 -263 8 -178 8 -230 0 -237 -3 -4 -35 -8 -71 -10 l-65 -3
0 314 c0 172 2 315 5 318 3 2 32 6 66 7 l61 2 -1 -128z m507 118 c11 -6 13
-70 10 -317 l-3 -309 -71 -3 -71 -3 1 133 1 133 -165 3 c-116 2 -166 6 -172
15 -4 6 -8 31 -8 55 l0 42 175 0 175 0 0 123 c0 68 3 127 7 130 9 10 105 8
121 -2z m1632 -39 c0 -27 -5 -53 -12 -60 -9 -9 -94 -12 -320 -12 l-308 0 0 53
c0 30 3 57 7 61 4 3 148 6 320 6 l313 -1 0 -47z m245 -9 c-1 -29 -3 -54 -6
-57 -3 -3 -31 -8 -63 -12 -44 -5 -60 -4 -67 7 -10 15 -12 102 -3 111 3 3 35 5
72 4 l67 -1 0 -52z m-5525 41 c0 -3 -11 -15 -25 -26 -34 -26 -60 -80 -75 -153
-7 -33 -27 -87 -45 -121 -39 -72 -143 -221 -175 -249 l-23 -20 7 25 c4 14 10
63 13 110 6 95 32 158 108 266 59 82 159 174 191 174 13 0 24 -3 24 -6z m61
-36 c1 -24 1 -52 0 -63 -1 -11 -4 -129 -6 -262 -2 -134 -6 -246 -8 -250 -3 -5
-35 -6 -72 -5 l-67 4 5 181 c3 135 9 196 22 237 17 56 102 200 117 200 4 0 9
-19 9 -42z m4334 -12 c46 -30 90 -65 98 -78 12 -18 15 -57 13 -188 -1 -91 -6
-171 -10 -178 -4 -7 -29 -23 -56 -37 -27 -14 -61 -41 -76 -60 l-26 -35 -209 0
-209 0 -1 28 c0 23 -9 31 -61 57 -46 23 -64 38 -75 63 -7 18 -11 38 -7 44 4 6
7 78 6 160 -1 175 -2 173 118 237 l75 41 168 0 169 0 83 -54z m-5094 -158 c46
-71 54 -91 56 -138 1 -30 6 -91 11 -135 5 -43 6 -93 2 -110 -6 -30 -6 -30 -78
-33 l-72 -3 0 235 c0 226 3 266 20 266 4 0 32 -37 61 -82z m6210 -2 c17 -71
23 -384 7 -403 -13 -16 -126 -15 -131 2 -2 5 -1 108 1 227 4 243 -3 223 79
224 30 1 33 -2 44 -50z m-741 -7 l12 -29 102 -1 c55 0 119 -1 141 -3 22 -1 82
-3 133 -4 l92 -2 0 -50 0 -50 -232 -2 -233 -3 -3 -126 -3 -127 -67 -4 c-37 -3
-70 -3 -74 -1 -10 5 -10 192 -2 334 l7 104 57 -3 c54 -3 59 -6 70 -33z m-2687
-36 c5 -3 6 -25 4 -50 l-3 -45 -241 1 c-143 1 -244 -2 -247 -7 -3 -6 0 -12 8
-15 10 -4 14 -22 13 -65 l-2 -60 65 -6 c36 -3 149 -6 252 -7 l187 -2 6 -48 c4
-27 4 -53 0 -59 -4 -6 -116 -10 -331 -10 l-325 0 5 33 c2 17 8 106 12 195 l7
164 291 -7 c160 -4 295 -10 299 -12z m-993 -268 c15 -18 7 -85 -12 -97 -18
-11 -71 -10 -102 2 -22 8 -26 16 -26 53 0 24 3 47 7 50 13 14 120 7 133 -8z
m-2044 -252 c36 -16 98 -18 759 -19 396 -1 726 -2 733 -3 6 -1 12 -5 12 -11 0
-6 -76 -11 -202 -12 l-203 -2 200 -6 c142 -3 12 -7 -445 -12 -362 -4 -660 -4
-680 1 -33 8 -31 9 23 10 32 1 56 5 53 9 -7 12 -167 5 -180 -8 -17 -17 -60
-11 -99 15 -37 26 -43 36 -30 48 9 10 16 9 59 -10z m5373 -19 c81 -17 -8 -23
-319 -24 -203 0 -340 3 -340 9 0 5 48 7 114 5 72 -3 117 -1 121 6 7 11 370 14
424 4z m574 -9 c1 -5 -18 -12 -43 -15 -25 -3 131 -7 345 -10 326 -4 286 -5
-240 -5 -346 0 -542 1 -435 3 114 1 189 6 181 11 -7 5 -10 14 -6 20 8 15 194
11 198 -4z m-1243 -5 c0 -12 -27 -12 -55 0 -16 7 -13 9 18 9 20 1 37 -3 37 -9z
m-2140 -27 c0 -10 -887 -9 -897 0 -3 4 197 7 445 7 249 0 452 -3 452 -7z
m1233 0 c-40 -2 -107 -2 -150 0 -43 1 -10 3 72 3 83 0 118 -2 78 -3z m1100 0
c-138 -2 -368 -2 -510 0 -142 1 -28 2 252 2 281 0 397 -1 258 -2z m304 1 c-3
-3 -12 -4 -19 -1 -8 3 -5 6 6 6 11 1 17 -2 13 -5z m86 -1 c-13 -2 -33 -2 -45
0 -13 2 -3 4 22 4 25 0 35 -2 23 -4z m70 0 c-7 -2 -19 -2 -25 0 -7 3 -2 5 12
5 14 0 19 -2 13 -5z m1477 -13 c0 -6 -33 -27 -74 -46 -67 -32 -86 -36 -193
-43 -271 -17 -986 -19 -4058 -13 -1185 2 -1498 1 -1796 -8 -9 0 -21 -10 -27
-22 -10 -23 -11 -23 -11 5 -1 34 27 31 -356 32 -294 0 -313 2 -375 23 -65 22
-120 56 -109 66 3 4 28 -4 55 -16 l49 -23 3380 0 3380 0 60 27 c68 31 75 32
75 18z"/>
<path d="M3661 2854 c-72 -119 -129 -219 -126 -223 3 -3 65 25 136 61 l130 67
97 -53 c53 -29 108 -57 121 -61 21 -6 23 -5 17 11 -10 27 -217 387 -231 402
-10 11 -38 -30 -144 -204z"/>
<path d="M5347 1564 c-17 -5 -17 -19 -11 -207 4 -111 8 -203 9 -205 2 -2 20 1
42 7 21 6 100 11 176 11 l137 0 37 34 37 33 -3 139 c-1 76 -4 141 -7 146 -3 4
-20 16 -37 25 -26 14 -63 18 -197 20 -91 1 -173 -1 -183 -3z"/>
<path d="M1218 853 c6 -2 18 -2 25 0 6 3 1 5 -13 5 -14 0 -19 -2 -12 -5z"/>
<path d="M1458 853 c12 -2 32 -2 45 0 12 2 2 4 -23 4 -25 0 -35 -2 -22 -4z"/>
<path d="M1070 623 c-122 -8 -130 -24 -130 -280 0 -220 4 -237 60 -266 33 -16
183 -17 2812 -15 l2778 3 32 33 33 32 3 200 c3 218 -1 242 -55 277 -26 17
-169 18 -2753 19 -1499 0 -2750 -1 -2780 -3z m410 -123 c66 -13 90 -33 90 -76
0 -26 -6 -37 -27 -48 -16 -8 -22 -15 -15 -16 25 0 52 -40 52 -76 0 -78 -39
-99 -185 -99 -83 0 -106 4 -135 20 -29 17 -36 28 -38 60 -5 53 5 83 27 90 18
5 18 7 -5 30 -30 30 -30 47 -1 80 34 39 135 54 237 35z m931 0 c55 -11 99 -41
99 -69 0 -13 -13 -16 -75 -16 -63 0 -75 3 -75 16 0 19 -23 31 -45 23 -9 -4
-15 -19 -15 -40 0 -32 1 -33 26 -24 53 20 154 1 176 -33 11 -17 10 -105 -2
-126 -17 -32 -69 -46 -175 -46 -114 1 -160 17 -172 63 -10 34 -10 159 -1 193
16 55 135 82 259 59z m1309 -15 c48 -25 53 -96 8 -111 -21 -6 -21 -7 5 -21 18
-9 28 -22 29 -41 4 -80 -11 -104 -77 -121 -101 -25 -231 -7 -266 38 -26 33
-21 97 10 121 l21 15 -20 18 c-25 22 -26 61 0 87 18 18 31 23 90 34 45 8 170
-4 200 -19z m1599 14 c34 -7 57 -19 71 -36 26 -33 25 -49 -5 -78 -13 -14 -20
-25 -15 -25 40 0 56 -104 21 -139 -60 -60 -312 -51 -326 12 -16 74 -13 77 69
77 l75 0 3 -37 c2 -30 7 -38 23 -38 16 0 21 8 23 39 4 44 -7 56 -55 56 -28 0
-33 3 -33 25 0 21 5 25 29 25 16 0 36 3 45 6 19 7 22 60 4 67 -23 7 -38 -4
-38 -29 0 -23 -3 -24 -74 -24 -57 0 -75 4 -80 15 -7 19 8 60 26 71 36 23 161
30 237 13z m601 -17 c25 -12 36 -25 38 -43 3 -25 1 -26 -54 -28 -66 -2 -94 5
-94 24 0 18 -30 28 -46 14 -8 -6 -14 -25 -14 -41 0 -25 3 -29 18 -23 57 23
156 12 183 -21 18 -22 14 -122 -6 -144 -49 -55 -272 -51 -325 5 -19 20 -20 32
-18 125 3 97 5 104 28 122 54 40 217 46 290 10z m410 3 c36 -18 58 -54 40 -65
-14 -9 -107 -12 -131 -5 -11 4 -19 12 -19 20 0 7 -6 15 -12 18 -25 8 -38 -5
-38 -39 0 -32 1 -33 26 -24 61 24 167 -2 178 -43 9 -34 7 -96 -4 -116 -17 -32
-69 -46 -175 -46 -110 1 -159 17 -174 58 -12 33 -13 169 -2 199 12 31 36 46
94 58 57 12 181 4 217 -15z m-4390 -85 c0 -93 1 -100 20 -100 16 0 20 -7 20
-30 0 -23 -4 -30 -20 -30 -15 0 -20 -7 -20 -25 0 -26 0 -26 -77 -23 -72 3 -78
5 -81 26 -3 21 -8 22 -88 22 l-84 0 0 31 c0 21 20 63 63 130 l62 99 103 0 102
0 0 -100z m950 75 c0 -25 -1 -25 -89 -25 -72 0 -90 -3 -95 -16 -10 -25 2 -34
30 -24 57 22 155 5 174 -30 6 -10 10 -46 10 -79 0 -71 -16 -93 -77 -110 -89
-25 -251 -2 -273 39 -5 10 -10 32 -10 49 l0 31 75 0 75 0 0 -27 c0 -37 13 -56
36 -51 16 3 19 13 19 68 0 60 -2 65 -23 68 -13 2 -25 -3 -28 -12 -5 -13 -22
-16 -81 -16 l-74 0 2 80 3 80 163 0 163 0 0 -25z m480 -15 c0 -24 -18 -85 -46
-155 l-46 -115 -75 0 c-87 0 -85 -14 -17 145 l43 100 -75 3 -74 3 0 29 0 30
145 0 145 0 0 -40z m850 8 c0 -18 -22 -87 -48 -153 l-48 -120 -77 -3 c-42 -2
-77 -1 -77 0 0 2 23 57 50 122 28 65 50 120 50 122 0 2 -32 4 -72 6 -71 3 -72
3 -73 31 l-2 27 149 0 148 0 0 -32z m320 -67 c0 -96 1 -100 23 -103 20 -3 23
-10 18 -48 0 -5 -10 -10 -21 -10 -15 0 -20 -7 -20 -25 0 -24 -2 -25 -75 -25
-73 0 -75 1 -75 25 0 25 -1 25 -90 25 -90 0 -90 0 -90 26 0 30 5 41 76 150
l54 84 100 0 100 0 0 -99z m480 67 c0 -17 -21 -87 -47 -154 l-48 -124 -78 0
-77 0 16 38 c50 119 84 203 84 207 0 3 -31 5 -70 5 l-70 0 0 30 0 30 145 0
145 0 0 -32z"/>
<path d="M1385 446 c-3 -9 -7 -23 -10 -31 -2 -8 5 -19 16 -25 22 -12 33 3 27
41 -4 27 -26 37 -33 15z"/>
<path d="M1374 316 c-11 -30 1 -81 20 -84 29 -6 37 20 27 91 -2 13 -41 7 -47
-7z"/>
<path d="M2307 343 c-4 -3 -7 -28 -7 -55 0 -52 17 -71 45 -48 18 15 20 81 3
98 -13 13 -31 16 -41 5z"/>
<path d="M3567 453 c-4 -3 -7 -19 -7 -34 0 -28 15 -40 38 -31 18 6 15 59 -4
66 -19 7 -19 7 -27 -1z"/>
<path d="M3557 310 c-9 -33 7 -75 29 -75 16 0 19 7 19 45 0 38 -3 45 -21 48
-15 2 -23 -3 -27 -18z"/>
<path d="M5762 338 c-14 -14 -16 -76 -3 -96 5 -8 17 -12 27 -10 16 3 19 12 19
58 0 57 -16 75 -43 48z"/>
<path d="M6174 336 c-3 -7 -4 -33 -2 -57 2 -36 7 -44 23 -44 23 0 38 55 24 92
-9 25 -37 31 -45 9z"/>
<path d="M1755 360 c-14 -27 -25 -52 -25 -55 0 -11 50 -4 51 8 3 43 5 97 2 97
-1 0 -14 -22 -28 -50z"/>
<path d="M4357 355 l-27 -55 30 0 c30 0 30 1 30 55 0 30 -1 55 -3 55 -2 0 -15
-25 -30 -55z"/>
<path d="M342 575 c-29 -8 -65 -21 -81 -29 -161 -83 -179 -266 -39 -377 137
-108 396 -105 527 7 62 53 84 103 79 179 -6 99 -59 160 -179 207 -71 27 -231
34 -307 13z m271 -45 c60 -23 130 -78 152 -121 66 -127 -95 -288 -289 -289
-151 0 -303 119 -293 228 15 150 249 249 430 182z"/>
<path d="M395 491 c-186 -49 -189 -244 -6 -298 96 -28 239 8 290 74 52 65 30
146 -53 197 -39 25 -59 30 -124 32 -42 2 -90 0 -107 -5z"/>
<path d="M6975 577 c-180 -47 -257 -179 -189 -322 78 -164 296 -217 499 -121
89 42 128 75 155 132 56 115 -13 236 -170 299 -58 23 -225 30 -295 12z m265
-52 c203 -73 213 -261 19 -360 -137 -70 -300 -48 -392 54 -42 47 -51 75 -44
137 8 79 75 149 169 180 54 18 186 12 248 -11z"/>
<path d="M7005 488 c-80 -28 -131 -99 -119 -164 15 -83 123 -152 219 -142 61
7 182 66 207 100 25 36 26 99 1 132 -20 27 -61 54 -108 73 -37 14 -160 15
-200 1z"/>
</g>
</svg>
